# xmcd CD database file
#
# Track frame offsets:
#	150
#	11340
#	23555
#	33665
#	49467
#	64710
#	71797
#	89365
#	102595
#	114352
#	124952
#	139505
#	153315
#	175072
#
# Disc length: 2472 seconds
#
# Revision: 0
# Processed by: cddbd v1.5.1PL2 Copyright (c) Steve Scherf et al.
# Submitted via: CDex 1.51
#
DISCID=bb09a60e
DTITLE=Sound Of Joy - A Gift of Love
DYEAR=1900
DGENRE=Jazz
TTITLE0=The Lord's Prayer
TTITLE1=I Saw Mommy Kissing Santa Clau
TTITLE2=Silent Night
TTITLE3=Santa Claus Is Coming To Town
TTITLE4=Oh What A Gift
TTITLE5=I Say Three Ships
TTITLE6=The Little Drummer Boy
TTITLE7=When You Wish Upon A Star
TTITLE8=Christmas Hymn's Medley
TTITLE9=Rockin' ArondThe hristmas Tree
TTITLE10=The Christmas Song
TTITLE11=Great Is Thy Faithfulness
TTITLE12=Happy X'mas (War Is Over)
TTITLE13=Praise Be To The Lord
EXTD=
EXTT0=
EXTT1=
EXTT2=
EXTT3=
EXTT4=
EXTT5=
EXTT6=
EXTT7=
EXTT8=
EXTT9=
EXTT10=
EXTT11=
EXTT12=
EXTT13=
PLAYORDER=
